<svg width="24" height="24" viewBox="0 0 24 24" fill="none" xmlns="http://www.w3.org/2000/svg">
<path d="M4.22222 21C3.61111 21 3.08778 20.8043 2.65222 20.413C2.21741 20.021 2 19.55 2 19V5C2 4.45 2.21741 3.979 2.65222 3.587C3.08778 3.19567 3.61111 3 4.22222 3H19.7778C20.3889 3 20.9122 3.19567 21.3478 3.587C21.7826 3.979 22 4.45 22 5V19C22 19.55 21.7826 20.021 21.3478 20.413C20.9122 20.8043 20.3889 21 19.7778 21H4.22222ZM9.77778 19V13H4.22222V19H9.77778ZM12 19H19.7778V13H12V19ZM4.22222 11H19.7778V5H4.22222V11Z" fill="white"/>
</svg>
